<svg width="192" height="26" viewBox="0 0 192 26" fill="none" xmlns="http://www.w3.org/2000/svg">
<path fill-rule="evenodd" clip-rule="evenodd" d="M10.3997 25.2828H16.8744L27.1959 0.683929H20.9858L10.3997 25.2828Z" fill="#6FC247"/>
<path fill-rule="evenodd" clip-rule="evenodd" d="M157.476 17.9866L161.612 21.8779C160.523 23.1288 159.179 24.1188 157.58 24.8486C155.981 25.5781 154.14 25.943 152.054 25.943C150.154 25.943 148.399 25.6303 146.79 25.0048C145.179 24.3797 143.783 23.4937 142.602 22.3468C141.42 21.2003 140.493 19.8281 139.821 18.2299C139.149 16.6313 138.813 14.8713 138.813 12.9484C138.813 10.98 139.155 9.19603 139.839 7.59785C140.522 5.99963 141.466 4.63908 142.672 3.51544C143.876 2.39216 145.289 1.52942 146.911 0.926892C148.533 0.324722 150.282 0.0236206 152.159 0.0236206C153.896 0.0236206 155.605 0.330692 157.285 0.944188C158.964 1.55833 160.326 2.45563 161.368 3.63706L157.337 7.66729C156.781 6.90293 156.051 6.33561 155.148 5.96475C154.244 5.59453 153.317 5.40908 152.367 5.40908C151.325 5.40908 150.369 5.60017 149.5 5.98237C148.631 6.36453 147.884 6.89161 147.258 7.56293C146.633 8.23525 146.147 9.0282 145.799 9.94312C145.451 10.8584 145.278 11.86 145.278 12.9484C145.278 14.0604 145.451 15.08 145.799 16.0062C146.147 16.9328 146.627 17.726 147.241 18.3861C147.855 19.0461 148.591 19.5618 149.448 19.9321C150.305 20.303 151.243 20.4884 152.263 20.4884C153.445 20.4884 154.475 20.2567 155.356 19.7932C156.236 19.3302 156.943 18.728 157.476 17.9866ZM190.804 7.54567C191.476 9.13255 191.812 10.9105 191.812 12.8789C191.812 14.8251 191.476 16.6027 190.804 18.2123C190.132 19.8227 189.2 21.2003 188.007 22.3468C186.813 23.4937 185.394 24.3797 183.75 25.0048C182.104 25.6303 180.321 25.9433 178.398 25.9433C176.474 25.9433 174.697 25.6303 173.063 25.0048C171.43 24.3797 170.016 23.4937 168.823 22.3468C167.629 21.2003 166.697 19.8227 166.026 18.2123C165.353 16.6027 165.018 14.8251 165.018 12.8789C165.018 10.9105 165.353 9.13255 166.026 7.54567C166.697 5.95942 167.629 4.60981 168.823 3.49818C170.016 2.38616 171.43 1.52942 173.063 0.926892C174.697 0.324722 176.474 0.0236206 178.398 0.0236206C180.321 0.0236206 182.104 0.324722 183.75 0.926892C185.394 1.52942 186.813 2.38616 188.007 3.49818C189.2 4.60981 190.132 5.95942 190.804 7.54567ZM184.931 15.9537C185.279 15.0162 185.453 13.9913 185.453 12.8789C185.453 11.8142 185.279 10.8175 184.931 9.89094C184.584 8.96472 184.103 8.1711 183.489 7.51075C182.875 6.85076 182.134 6.32997 181.265 5.94745C180.396 5.56529 179.44 5.37419 178.398 5.37419C177.355 5.37419 176.405 5.56529 175.548 5.94745C174.69 6.32997 173.949 6.85076 173.324 7.51075C172.698 8.1711 172.217 8.96472 171.881 9.89094C171.545 10.8175 171.378 11.8142 171.378 12.8789C171.378 13.9913 171.551 15.0162 171.899 15.9537C172.246 16.8919 172.727 17.6971 173.341 18.3691C173.954 19.0408 174.69 19.5672 175.548 19.9494C176.405 20.3315 177.355 20.5226 178.398 20.5226C179.44 20.5226 180.39 20.3315 181.248 19.9494C182.104 19.5672 182.846 19.0408 183.472 18.3691C184.097 17.6971 184.584 16.8919 184.931 15.9537ZM96.624 0.683972V16.0062C96.624 17.4888 96.3748 18.838 95.877 20.054C95.3785 21.2701 94.6659 22.3122 93.7394 23.181C92.8125 24.0497 91.6945 24.727 90.3858 25.2135C89.0767 25.7001 87.6231 25.9433 86.0242 25.9433C84.4025 25.9433 82.9429 25.7001 81.6454 25.2135C80.3477 24.727 79.2477 24.0497 78.344 23.181C77.4404 22.3122 76.7452 21.2701 76.2586 20.054C75.7721 18.838 75.5288 17.4888 75.5288 16.0062V0.683972H81.4371V15.5197C81.4371 16.192 81.5238 16.8287 81.6976 17.4306C81.8714 18.0334 82.1373 18.5718 82.4969 19.0464C82.8558 19.5213 83.331 19.8975 83.9219 20.1757C84.5125 20.4535 85.225 20.5924 86.0592 20.5924C86.8933 20.5924 87.6055 20.4535 88.1964 20.1757C88.7873 19.8975 89.2678 19.5213 89.6387 19.0464C90.0089 18.5718 90.2755 18.0334 90.438 17.4306C90.5998 16.8287 90.6812 16.192 90.6812 15.5197V0.683972H96.624ZM41.1941 0.684294L51.4114 25.283H44.8082L42.897 20.4538H33.3746L31.5674 25.283H25.1035L35.4248 0.684294H41.1941ZM35.0775 15.6938H41.2636L38.2051 7.25089L35.0775 15.6938ZM0 0.683936L8.6813 21.5845L11.9963 13.646L6.60319 0.683936H0ZM126.477 25.2832H132.455V0.683936H126.477V25.2832ZM71.3943 25.2828V20.1063H61.8715V0.683936H55.8943V25.2828H71.3943ZM121.334 0.683936V5.75661H114.383V25.2832H108.441V5.75661H101.49V0.683936H121.334Z" fill="#065666"/>
</svg>
